# xmcd
#
# Track frame offsets: 
#        150
#        17660
#        37925
#        57931
#        77040
#        96710
#        116322
#        135429
#
# Disc length: 2050 seconds
#
# Revision: 0
# Processed by: cddbd v1.5.2PL0 Copyright (c) Steve Scherf et al.
# Submitted via: ExactAudioCopyFreeDBPlugin 1.0
#
DISCID=5d080008
DTITLE=Trama - Trama [Japanese Paper Sleeve Edition]
DYEAR=1977
DGENRE=Soul
TTITLE0=Gimme Some Lovin'
TTITLE1=I Know You Want It
TTITLE2=It's Amazing
TTITLE3=Captain Of The Ship
TTITLE4=If I Ever Do Wrong
TTITLE5=Straight Groove
TTITLE6=You Should Be Dancing
TTITLE7=Come With Me
EXTD=
EXTT0=
EXTT1=
EXTT2=
EXTT3=
EXTT4=
EXTT5=
EXTT6=
EXTT7=
PLAYORDER=
